HIERARCHY
ROOT Hips
{
  OFFSET 5.80788e-005 67.184 3.4734
  CHANNELS 6 Xposition Yposition Zposition Zrotation Xrotation Yrotation
  JOINT Chest
  {
    OFFSET 0 8.7983 -4.7612
    CHANNELS 3 Zrotation Xrotation Yrotation
    JOINT Chest2
    {
      OFFSET 0 8.0291 0.4195
      CHANNELS 3 Zrotation Xrotation Yrotation
      JOINT Chest3
      {
        OFFSET 0 9.9351 -2.2114
        CHANNELS 3 Zrotation Xrotation Yrotation
        JOINT Neck
        {
          OFFSET 0 22.3885 -0.4656
          CHANNELS 3 Zrotation Xrotation Yrotation
          JOINT Head
          {
            OFFSET -0.0001 12.643 3.4389
            CHANNELS 3 Zrotation Xrotation Yrotation
            End Site
            {
              OFFSET 0.0001 17.6655 0.5274
            }
          }
        }
        JOINT LeftCollar
        {
          OFFSET 2.2603 21.606 7.4023
          CHANNELS 3 Zrotation Xrotation Yrotation
          JOINT LeftShoulder
          {
            OFFSET 13.5163 -1.1332 -5.0146
            CHANNELS 3 Zrotation Xrotation Yrotation
            JOINT LeftElbow
            {
              OFFSET -0.0995 -28.05 -0.2431
              CHANNELS 3 Zrotation Xrotation Yrotation
              JOINT LeftWrist
              {
                OFFSET 0.0679 -23.3996 -0.1402
                CHANNELS 3 Zrotation Xrotation Yrotation
                JOINT LeftFinger1
                {
                  OFFSET 0.7932 -9.069 2.5189
                  CHANNELS 3 Zrotation Xrotation Yrotation
                  JOINT LeftFinger11
                  {
                    OFFSET -0.8272 -3.3923 0.5977
                    CHANNELS 3 Zrotation Xrotation Yrotation
                    JOINT LeftFinger12
                    {
                      OFFSET -0.5649 -2.3158 0.4082
                      CHANNELS 3 Zrotation Xrotation Yrotation
                      End Site
                      {
                        OFFSET -0.4919 -1.6479 0.2673
                      }
                    }
                  }
                }
                JOINT LeftFinger2
                {
                  OFFSET 0.9159 -9.2044 0.2193
                  CHANNELS 3 Zrotation Xrotation Yrotation
                  JOINT LeftFinger21
                  {
                    OFFSET 0.0117 -4.1944 -0.0248
                    CHANNELS 3 Zrotation Xrotation Yrotation
                    JOINT LeftFinger22
                    {
                      OFFSET 0.0071 -2.3249 -0.0142
                      CHANNELS 3 Zrotation Xrotation Yrotation
                      End Site
                      {
                        OFFSET -0.1475 -2.0882 0.0028
                      }
                    }
                  }
                }
                JOINT LeftFinger3
                {
                  OFFSET 0.6113 -8.7231 -2.0637
                  CHANNELS 3 Zrotation Xrotation Yrotation
                  JOINT LeftFinger31
                  {
                    OFFSET -0.1927 -3.8059 -0.2383
                    CHANNELS 3 Zrotation Xrotation Yrotation
                    JOINT LeftFinger32
                    {
                      OFFSET -0.1091 -2.1688 -0.1362
                      CHANNELS 3 Zrotation Xrotation Yrotation
                      End Site
                      {
                        OFFSET -0.2358 -1.9176 -0.0906
                      }
                    }
                  }
                }
                JOINT LeftFinger4
                {
                  OFFSET -0.6151 -8.0947 -3.5641
                  CHANNELS 3 Zrotation Xrotation Yrotation
                  JOINT LeftFinger41
                  {
                    OFFSET -0.4882 -2.341 -0.6462
                    CHANNELS 3 Zrotation Xrotation Yrotation
                    JOINT LeftFinger42
                    {
                      OFFSET -0.3575 -1.7167 -0.4742
                      CHANNELS 3 Zrotation Xrotation Yrotation
                      End Site
                      {
                        OFFSET -0.4187 -1.5237 -0.3496
                      }
                    }
                  }
                }
                JOINT LeftFinger0
                {
                  OFFSET -1.42 -1.8761 1.4223
                  CHANNELS 3 Zrotation Xrotation Yrotation
                  JOINT LeftFinger01
                  {
                    OFFSET -1.1471 -3.4929 2.6334
                    CHANNELS 3 Zrotation Xrotation Yrotation
                    JOINT LeftFinger02
                    {
                      OFFSET -0.823 -2.3 1.6571
                      CHANNELS 3 Zrotation Xrotation Yrotation
                      End Site
                      {
                        OFFSET -0.5822 -1.6914 1.1582
                      }
                    }
                  }
                }
              }
            }
          }
        }
        JOINT RightCollar
        {
          OFFSET -2.2603 21.606 7.4023
          CHANNELS 3 Zrotation Xrotation Yrotation
          JOINT RightShoulder
          {
            OFFSET -13.5187 -1.1334 -5.0155
            CHANNELS 3 Zrotation Xrotation Yrotation
            JOINT RightElbow
            {
              OFFSET 0.0994 -28.0499 -0.2431
              CHANNELS 3 Zrotation Xrotation Yrotation
              JOINT RightWrist
              {
                OFFSET -0.0679 -23.3996 -0.1402
                CHANNELS 3 Zrotation Xrotation Yrotation
                JOINT RightFinger1
                {
                  OFFSET -0.7932 -9.0691 2.5189
                  CHANNELS 3 Zrotation Xrotation Yrotation
                  JOINT RightFinger11
                  {
                    OFFSET 0.8272 -3.3923 0.5977
                    CHANNELS 3 Zrotation Xrotation Yrotation
                    JOINT RightFinger12
                    {
                      OFFSET 0.565 -2.3158 0.4082
                      CHANNELS 3 Zrotation Xrotation Yrotation
                      End Site
                      {
                        OFFSET 0.4919 -1.6479 0.2673
                      }
                    }
                  }
                }
                JOINT RightFinger2
                {
                  OFFSET -0.916 -9.2044 0.2193
                  CHANNELS 3 Zrotation Xrotation Yrotation
                  JOINT RightFinger21
                  {
                    OFFSET -0.0117 -4.1944 -0.0248
                    CHANNELS 3 Zrotation Xrotation Yrotation
                    JOINT RightFinger22
                    {
                      OFFSET -0.0071 -2.3249 -0.0142
                      CHANNELS 3 Zrotation Xrotation Yrotation
                      End Site
                      {
                        OFFSET 0.1475 -2.0882 0.0028
                      }
                    }
                  }
                }
                JOINT RightFinger3
                {
                  OFFSET -0.6113 -8.7231 -2.0637
                  CHANNELS 3 Zrotation Xrotation Yrotation
                  JOINT RightFinger31
                  {
                    OFFSET 0.1927 -3.8059 -0.2383
                    CHANNELS 3 Zrotation Xrotation Yrotation
                    JOINT RightFinger32
                    {
                      OFFSET 0.1091 -2.1688 -0.1362
                      CHANNELS 3 Zrotation Xrotation Yrotation
                      End Site
                      {
                        OFFSET 0.2358 -1.9176 -0.0906
                      }
                    }
                  }
                }
                JOINT RightFinger4
                {
                  OFFSET 0.6151 -8.0947 -3.564
                  CHANNELS 3 Zrotation Xrotation Yrotation
                  JOINT RightFinger41
                  {
                    OFFSET 0.4882 -2.341 -0.6462
                    CHANNELS 3 Zrotation Xrotation Yrotation
                    JOINT RightFinger42
                    {
                      OFFSET 0.3574 -1.7166 -0.4742
                      CHANNELS 3 Zrotation Xrotation Yrotation
                      End Site
                      {
                        OFFSET 0.4187 -1.5237 -0.3496
                      }
                    }
                  }
                }
                JOINT RightFinger0
                {
                  OFFSET 1.4199 -1.8761 1.4221
                  CHANNELS 3 Zrotation Xrotation Yrotation
                  JOINT RightFinger01
                  {
                    OFFSET 1.1472 -3.4929 2.6336
                    CHANNELS 3 Zrotation Xrotation Yrotation
                    JOINT RightFinger02
                    {
                      OFFSET 0.8229 -2.3 1.6571
                      CHANNELS 3 Zrotation Xrotation Yrotation
                      End Site
                      {
                        OFFSET 0.5822 -1.6914 1.1582
                      }
                    }
                  }
                }
              }
            }
          }
        }
      }
    }
  }
  JOINT RightHip
  {
    OFFSET -9.412 3.9771 -0.7758
    CHANNELS 3 Zrotation Xrotation Yrotation
    JOINT RightKnee
    {
      OFFSET -0.7531 -40.938 0
      CHANNELS 3 Zrotation Xrotation Yrotation
      JOINT RightAnkle
      {
        OFFSET 0 -40.1986 0
        CHANNELS 3 Zrotation Xrotation Yrotation
        JOINT RightToe
        {
          OFFSET 0 -4.4182 9.239
          CHANNELS 3 Zrotation Xrotation Yrotation
          End Site
          {
            OFFSET 0 0 6.1981
          }
        }
      }
    }
  }
  JOINT LeftHip
  {
    OFFSET 9.4119 3.9773 -0.7758
    CHANNELS 3 Zrotation Xrotation Yrotation
    JOINT LeftKnee
    {
      OFFSET 0.7532 -40.9383 0
      CHANNELS 3 Zrotation Xrotation Yrotation
      JOINT LeftAnkle
      {
        OFFSET 0 -40.1986 0
        CHANNELS 3 Zrotation Xrotation Yrotation
        JOINT LeftToe
        {
          OFFSET 0 -4.4182 9.239
          CHANNELS 3 Zrotation Xrotation Yrotation
          End Site
          {
            OFFSET 0 0 6.1981
          }
        }
      }
    }
  }
}
MOTION
Frames:	4
Frame Time:	0.0333333
5.80788e-005 67.184 3.4734 0 0 -0 0 0 -0 0 0 -0 0 0 -0 0 0 -0 0 0 -0 0 0 -12.5014 88.1196 14.2451 10.6914 -0.00160068 -0.00239207 0.000740045 -8.4365e-005 7.00714e-005 -9.52055e-007 9.93923e-017 -1.98785e-016 -1.59028e-015 9.93923e-017 -5.96354e-016 -1.59028e-015 -9.93923e-017 -5.96354e-016 -1.59028e-015 9.93923e-017 -1.98785e-016 -1.59028e-015 -0.0128176 0.00232552 8.52707e-005 9.93923e-017 5.96354e-016 -0 9.93923e-017 -1.98785e-016 -1.59028e-015 -0.0160551 0.00299681 0.000857156 -2.48481e-016 0 3.18055e-015 9.93923e-017 -1.98785e-016 -1.59028e-015 -0.0125865 0.0031206 0.00282719 0 1.98785e-016 -0 9.93923e-017 -1.98785e-016 -1.59028e-015 9.93923e-017 -5.96354e-016 -1.59028e-015 -9.93923e-017 -5.96354e-016 -1.59028e-015 -0.865644 0.16582 7.03859 -88.0329 10.2057 -10.5567 0.0015593 -0.00248883 -0.000788628 7.87605e-005 4.10553e-005 1.24965e-005 -3.97569e-016 -7.95139e-016 3.18055e-015 -1.98785e-016 -3.97569e-016 3.18055e-015 -1.98785e-016 0 3.18055e-015 -3.97569e-016 -7.95139e-016 3.18055e-015 0.0129473 0.00231697 -8.70038e-005 9.93923e-017 -7.95139e-016 1.59028e-015 -3.97569e-016 -7.95139e-016 3.18055e-015 0.0163314 0.00303369 -0.000872333 3.97569e-016 7.95139e-016 -3.18055e-015 -3.97569e-016 -7.95139e-016 3.18055e-015 0.0145763 0.00367772 -0.00326275 9.93923e-017 -3.97569e-016 -0 -3.97569e-016 -7.95139e-016 3.18055e-015 -1.98785e-016 -3.97569e-016 3.18055e-015 -1.98785e-016 0 3.18055e-015 3.42485 1.36937 -0.0640303 0.000136572 0.69354 0.00145564 -3.42573 -2.06297 -0.0607933 -3.19502e-024 0 -1.48106e-024 -3.42498 1.36123 0.0639712 -6.769e-005 0.712612 -0.0012277 3.42582 -2.07388 0.0612819 2.55305e-023 0 -2.31416e-026 
0.102961 18.1815 8.82467 9.68641e-009 -66.6681 9.70451e-009 -0.0466681 6.34479 -0.0808734 -0.0850505 12.6896 -0.157978 -0.0850507 12.6897 -0.157978 -4.0396e-008 13.3321 -8.99004e-008 -7.63048e-008 6.71101 -2.41686e-008 0.459893 0.322381 -6.12579 25.486 30.1458 22.8682 -13.9983 -53.7212 -33.7354 -4.39081 1.42688 -17.5915 9.47581e-009 -1.28395e-006 -2.74291e-006 1.39149e-015 9.54166e-015 9.93923e-017 -1.16427e-006 1.96615e-006 -4.18128e-006 9.47581e-009 -1.28395e-006 -2.74291e-006 -0.0128011 0.00232894 8.48467e-005 -1.55217e-006 -7.08208e-006 2.11317e-006 9.47581e-009 -1.28395e-006 -2.74291e-006 -0.0160419 0.00300659 0.000850949 5.76476e-015 -6.36111e-015 -5.96354e-016 9.47581e-009 -1.28395e-006 -2.74291e-006 -0.0125273 0.00312095 0.00281842 6.62855e-006 1.22671e-008 8.84843e-008 9.47581e-009 -1.28395e-006 -2.74291e-006 1.39149e-015 9.54166e-015 9.93923e-017 -1.16427e-006 1.96615e-006 -4.18128e-006 -1.30438 0.583507 0.66583 -27.9473 28.9498 -17.025 12.6453 -54.4549 32.0448 4.04935 1.06133 17.714 -9.71175e-007 -1.68458e-006 -4.19929e-006 1.32206e-006 6.36111e-015 1.08068e-006 1.67294e-006 -1.68458e-006 -2.03793e-006 -9.71175e-007 -1.68458e-006 -4.19929e-006 0.0129851 0.00230894 -9.10643e-005 4.71509e-008 1.86658e-006 -2.76539e-006 -9.71175e-007 -1.68458e-006 -4.19929e-006 0.0163047 0.00302825 -0.000871233 -5.59082e-016 -9.54166e-015 -5.61567e-015 -9.71175e-007 -1.68458e-006 -4.19929e-006 0.0145845 0.00367276 -0.0032589 4.01326e-006 -4.39381e-006 4.76749e-007 -9.71175e-007 -1.68458e-006 -4.19929e-006 1.32206e-006 6.36111e-015 1.08068e-006 1.67294e-006 -1.68458e-006 -2.03793e-006 -20.9552 -34.4479 -28.2631 171.684 79.9386 -175.211 -6.59169 7.66078 -1.75137 -1.64499e-006 -9.78512e-007 -1.80569e-007 11.4279 2.1653 0.80779 -1.47888 6.2326 0.472503 7.43066 8.72944 0.737118 -2.36232e-006 -2.45457e-006 -2.77723e-006 
0.214614 -3.09319 7.66861 -180 -83.3313 -180 -0.0671156 9.17617 -0.115845 -0.117459 18.3526 -0.22506 -0.117459 18.3525 -0.225061 4.71556e-007 19.3314 1.90664e-006 1.54891e-007 9.50625 -5.58069e-009 0.643516 0.464097 -3.25662 -3.2283 34.5216 25.8331 -44.6642 -75.4685 -73.5832 -6.33755 1.99939 -25.4919 2.06902e-032 -7.95139e-016 1.49089e-015 -0 0 1.49089e-015 5.05979e-006 -8.83935e-006 -1.78868e-006 2.06902e-032 -7.95139e-016 1.49089e-015 -0.0128343 0.00231914 7.92289e-005 2.55179e-031 -1.59028e-015 9.19379e-015 2.06902e-032 -7.95139e-016 1.49089e-015 -0.016037 0.00297815 0.000852189 -1.59028e-015 -7.95139e-016 2.34566e-014 2.06902e-032 -7.95139e-016 1.49089e-015 -0.0125806 0.00310574 0.00281314 2.37624e-006 2.58778e-006 8.16585e-006 2.06902e-032 -7.95139e-016 1.49089e-015 -0 0 1.49089e-015 5.05979e-006 -8.83935e-006 -1.78868e-006 -1.47505 0.767123 -2.20226 -0.373848 35.9098 -18.7173 42.5817 -77.0282 70.8844 5.88084 1.44171 25.6708 1.08466e-006 2.66237e-006 1.37375e-006 -7.95139e-016 1.59028e-015 1.19271e-015 -7.95139e-016 1.59028e-015 -2.38542e-015 1.08466e-006 2.66237e-006 1.37375e-006 0.0129584 0.00231406 -8.38264e-005 1.59028e-015 0 -3.08116e-015 1.08466e-006 2.66237e-006 1.37375e-006 0.0163132 0.00302648 -0.000871698 -0 0 1.49089e-015 1.08466e-006 2.66237e-006 1.37375e-006 0.0145956 0.00368255 -0.00326382 -7.95139e-016 1.59028e-015 2.98177e-015 1.08466e-006 2.66237e-006 1.37375e-006 -7.95139e-016 1.59028e-015 1.19271e-015 -7.95139e-016 1.59028e-015 -2.38542e-015 -42.3012 -43.4918 -50.7102 177.223 36.2122 176.306 -6.7918 10.4263 -4.33899 -1.09075e-005 -1.47675e-006 8.52076e-007 18.0274 2.55978 1.13602 -2.15578 9.03184 0.672539 9.22327 13.2436 1.08165 -2.76239e-007 9.79585e-007 8.05789e-007 
0.184998 1.69518 8.12627 180 -89.9981 180 -0.0617666 8.49447 -0.10659 -0.10918 16.989 -0.20728 -0.10918 16.9891 -0.207281 3.49521e-007 17.9983 5.71233e-007 5.70586e-008 8.38567 -1.68987e-007 0.603948 0.432922 -3.89422 3.07325 33.5957 25.3981 -31.6775 -71.0346 -58.3989 -5.906 1.87629 -23.7373 -3.58501e-006 2.30677e-005 -2.46565e-007 -3.34652e-006 -2.60765e-006 -6.72552e-007 6.3458e-006 2.69841e-006 3.49006e-006 -3.58501e-006 2.30677e-005 -2.46565e-007 -0.0128074 0.00230662 8.52412e-005 -4.04236e-006 3.9855e-006 3.6172e-006 -3.58501e-006 2.30677e-005 -2.46565e-007 -0.01602 0.00299235 0.000862034 -5.02739e-007 7.22418e-007 -5.47811e-006 -3.58501e-006 2.30677e-005 -2.46565e-007 -0.0125501 0.00310527 0.00282084 -8.29357e-008 9.85322e-006 8.04876e-006 -3.58501e-006 2.30677e-005 -2.46565e-007 -3.34652e-006 -2.60765e-006 -6.72552e-007 6.3458e-006 2.69841e-006 3.49006e-006 -1.43854 0.726695 -1.56488 -6.47113 34.3901 -18.4489 29.2865 -72.3508 55.4579 5.47265 1.36251 23.9037 -2.38542e-015 0 -3.47873e-015 1.59028e-015 -3.80827e-007 5.96354e-015 -7.95139e-016 0 5.46658e-015 -2.38542e-015 0 -3.47873e-015 0.0129642 0.00232368 -9.0296e-005 -5.21329e-007 1.27597e-005 -1.45539e-006 -2.38542e-015 0 -3.47873e-015 0.016331 0.00303646 -0.000871281 1.47172e-006 -2.89666e-006 -5.03759e-006 -2.38542e-015 0 -3.47873e-015 0.014597 0.00367988 -0.00327018 3.85883e-006 -1.16103e-007 4.06013e-006 -2.38542e-015 0 -3.47873e-015 1.59028e-015 -3.80827e-007 5.96354e-015 -7.95139e-016 0 5.46658e-015 -37.3852 -42.1137 -44.8057 176.874 45.9214 177.721 -6.98568 10.1881 -3.37947 -3.03991e-006 -1.03217e-006 4.51238e-007 16.5608 2.56673 1.06264 -2.00387 8.19108 0.618598 8.83182 12.3643 0.991472 -5.16385e-006 2.71478e-005 -9.86209e-006 
